# xmcd
#
# Track frame offsets:
#	150
#	22472
#	42514
#	63059
#	78491
#	97848
#	121566
#	139712
#	158924
#	177563
#	203804
#	225890
#	248515
#	261048
#	282058
#
# Disc length: 3930 seconds
#
# Revision: 1
# Processed by: cddbd v1.4PL0 Copyright (c) Steve Scherf et al.
# Submitted via: audiograbber 1.81.02
#
DISCID=bd0f580f
DTITLE=The Acoustics Collection - Voice form Human
DYEAR=1900
DGENRE=Acoustic
TTITLE0=Conquest of Paradise
TTITLE1=Ave Maria
TTITLE2=Time To Say Goodbye
TTITLE3=Parnie's Song
TTITLE4=Orinoco Flow
TTITLE5=Arianna
TTITLE6=Aria
TTITLE7=Blue Rythm
TTITLE8=Barcarolle
TTITLE9=Pure Sky
TTITLE10=Children's Dawn Blessing
TTITLE11=Apart at Midnight
TTITLE12=Grand Mother's Heart
TTITLE13=Just Melody
TTITLE14=Storm In Africa
EXTD=
EXTT0=
EXTT1=
EXTT2=
EXTT3=
EXTT4=
EXTT5=
EXTT6=
EXTT7=
EXTT8=
EXTT9=
EXTT10=
EXTT11=
EXTT12=
EXTT13=
EXTT14=
PLAYORDER=
